<svg xmlns="http://www.w3.org/2000/svg" viewBox="0 0 112 102" fill="none">
  <path d="M46.8825 0.364349C43.8699 1.03169 43.336 2.09944 45.7384 2.65239C47.035 2.95746 48.6176 4.23495 49.304 5.5315C50.1429 7.09499 49.7044 84.6022 48.8464 87.386C47.9884 90.227 46.8825 90.1698 38.1498 86.7759C28.9023 83.1913 27.9871 83.401 34.3173 87.6339C41.5056 92.4197 45.4715 96.6335 45.4715 99.4363C45.4715 105.137 51.7255 100.714 55.6342 92.229L57.0261 89.2546L56.5494 79.5113C56.3016 74.1726 56.149 63.4951 56.2062 55.792L56.3397 41.8159L63.8139 49.6906C71.7458 58.0801 86.4655 74.1726 88.3722 76.575L89.5162 78.0241L97.3337 77.5856C114.761 76.6322 114.456 76.7657 107.172 73.3527C88.5819 64.62 82.1182 60.6922 72.5657 52.3028C69.7247 49.805 65.1105 45.9916 62.3267 43.818C57.5981 40.138 57.293 39.833 58.132 39.4898C58.6087 39.28 61.4115 38.136 64.3478 36.9539C71.4217 34.1129 79.3535 30.5474 85.5312 27.4394C89.2683 25.5709 91.3085 24.7891 93.4631 24.4078C98.554 23.5117 98.8209 22.9968 95.713 20.194C91.8996 16.7429 86.5227 13.921 83.7199 13.921C82.5949 13.921 82.614 14.1498 83.9868 16.1709C85.6838 18.6686 85.5312 19.2597 82.5568 21.8147C77.8854 25.8378 58.3798 37.564 56.3778 37.564C56.1681 37.564 56.1299 31.9202 56.2634 23.6451L56.4922 9.70717L57.5409 7.85767C58.8756 5.49337 58.5324 4.88322 54.3758 2.09945C51.0963 -0.112321 50.0476 -0.360196 46.8825 0.364349Z" fill="black"/>
  <path d="M31.7433 32.3778C30.4277 33.6743 13.8585 39.0894 11.2272 39.0894C9.77815 39.0894 7.47105 37.6784 6.5749 36.2484C5.50715 34.4942 5.04954 34.5324 5.04954 36.3628C5.04954 38.5364 5.69782 40.138 7.68078 42.8074C10.007 45.9535 10.4836 46.0488 14.5449 44.104C18.9303 41.9875 28.6735 38.2695 29.1121 38.5364C30.2561 39.2419 28.6544 43.9324 24.4788 51.9786C18.7396 63.0756 12.009 71.16 2.45643 78.4627C-2.06244 81.9138 0.0921274 82.0472 5.35461 78.6343C17.7863 70.5499 25.1271 62.2557 35.7092 44.3328C37.9782 40.4812 39.351 38.5364 40.0756 38.1551C42.9737 36.6679 42.1729 35.276 36.9104 32.6638C33.078 30.7571 33.3831 30.7762 31.7433 32.3778Z" fill="black"/>
</svg>
